<svg xmlns="http://www.w3.org/2000/svg" enable-background="new 0 0 512 512" viewBox="0 0 512 512" id="events">
  <path fill="#e0e6e9" d="M1,168.526v241.311c0,42.401,34.375,76.776,76.776,76.776h356.449
				c42.401,0,76.776-34.375,76.776-76.776V168.526l-264.066-31.067L1,168.526z"></path>
  <polygon fill="#fde44d" points="333.2 303.713 294.87 341.088 303.915 393.848 256.53 368.942 209.146 393.848 218.19 341.088 179.861 303.713 232.833 296.015 256.53 248.016 280.228 296.015"></polygon>
  <polygon fill="#fd3f2e" points="511 73.1 511 168.526 415.574 168.526 402.462 117.95 415.574 73.1"></polygon>
  <polygon fill="#fd3f2e" points="351.956 73.1 373.056 118.516 351.956 168.526 161.104 168.526 139.509 120.813 161.104 73.1"></polygon>
  <path fill="#fd3f2e" d="M97.486,73.1l16.01,47.713l-16.01,47.713c-11.843,0-84.918,0-96.486,0V73.1H97.486z"></path>
  <path fill="#6e7889" d="M415.574 168.526h-63.617c0-23.218 0-87.45 0-111.331 0-17.569 14.24-31.809 31.809-31.809 17.558 0 31.809 14.25 31.809 31.809C415.574 57.195 415.574 145.334 415.574 168.526zM161.104 168.526H97.486c0-23.218 0-87.45 0-111.331 0-17.569 14.24-31.809 31.809-31.809 17.558 0 31.809 14.25 31.809 31.809C161.104 81.297 161.104 145.334 161.104 168.526z"></path>
  <path fill="#fdb900" d="M296.515,407.929l-39.985-21.023l-39.985,21.023c-11.647,6.118-25.302-3.789-23.077-16.766
				l7.636-44.525l-32.349-31.532c-9.421-9.184-4.211-25.236,8.816-27.128l44.704-6.495l19.992-40.51
				c5.824-11.798,22.698-11.804,28.524,0l19.992,40.51l44.704,6.495c13.021,1.89,18.241,17.939,8.816,27.128l-32.349,31.532
				l7.636,44.525C321.812,404.115,308.183,414.059,296.515,407.929z M263.931,354.861l18.862,9.916l-3.602-21.003
				c-0.885-5.159,0.825-10.423,4.574-14.077l15.26-14.875l-21.089-3.064c-5.18-0.753-9.658-4.006-11.975-8.7l-9.431-19.109
				l-9.431,19.109c-2.317,4.694-6.795,7.947-11.975,8.7l-21.089,3.064l15.26,14.875c3.748,3.654,5.459,8.918,4.574,14.077
				l-3.602,21.003l18.862-9.916C253.763,352.425,259.297,352.425,263.931,354.861z"></path>
  <path fill="#fd3f2e" d="M431.478 279.857h-15.904c-8.784 0-15.904-7.121-15.904-15.904 0-8.784 7.121-15.904 15.904-15.904h15.904c8.784 0 15.904 7.121 15.904 15.904C447.383 272.736 440.262 279.857 431.478 279.857zM431.478 391.187h-15.904c-8.784 0-15.904-7.121-15.904-15.904s7.121-15.904 15.904-15.904h15.904c8.784 0 15.904 7.121 15.904 15.904S440.262 391.187 431.478 391.187zM97.486 279.857H81.582c-8.784 0-15.904-7.121-15.904-15.904 0-8.784 7.121-15.904 15.904-15.904h15.904c8.784 0 15.904 7.121 15.904 15.904C113.391 272.736 106.27 279.857 97.486 279.857zM97.486 391.187H81.582c-8.784 0-15.904-7.121-15.904-15.904s7.121-15.904 15.904-15.904h15.904c8.784 0 15.904 7.121 15.904 15.904S106.27 391.187 97.486 391.187z"></path>
</svg>
