<svg xmlns="http://www.w3.org/2000/svg" width="512" height="512" id="friends">
  <path d="M355.836 230.44C349.221 234.749 342.384 238.881 335.206 242.186 322.448 248.062 315.485 246.437 303.778 240.661 271.944 224.955 238.686 197.265 235.76 159.401 233.512 130.315 254.265 109.418 282.364 107.32L283.668 107.257C296.306 106.854 310.697 111.666 319.974 120.401 341.435 100.19 379.793 103.16 396.485 127.886 404.4 139.611 406.403 153.984 403.63 167.706 398.072 195.217 378.452 215.441 355.836 230.44zM280.47 122.928C262.507 124.986 250.56 138.375 251.418 156.538 252.871 187.296 280.029 210.896 305.414 224.214 315.873 229.701 318.687 232.768 329.734 227.653L339.586 222.678 356.645 210.988C425.254 156.351 370.87 97.4168 328.531 132.979 317.944 141.872 317.16 137.246 307.834 130.463 300.369 125.034 289.751 121.598 280.47 122.928zM191.274 360.881L189.55 361.139C178.079 362.354 166.884 358.041 158.07 350.815 118.021 317.983 114.472 220.52 181.983 214.502 198.935 212.492 222.637 220.258 227.583 238.61 229.954 247.406 228.612 243.288 233.956 250.411 241.787 260.849 243.241 274.679 242.553 287.299 240.901 317.586 225.152 355.788 191.274 360.881zM183.8 229.817C170.549 230.868 158.966 236.444 152.207 248.135 151.361 249.597 151.356 251.001 150.085 252.274L180.39 252.474C191.424 251.88 204.898 249.781 213.349 242.096 207.228 232.579 194.736 228.506 183.8 229.817zM218.041 258.754C198.647 266.611 185.418 268.143 165.193 268.108L145.454 267.824C143.665 290.496 146.83 315.219 162.103 333.071L164.776 335.89C172.117 342.572 181.206 347.705 191.406 345.416L191.968 345.293C230.879 336.462 234.083 256.698 218.041 258.754zM458.653 361.134L458.397 361.173C447.115 362.489 436.157 358.258 427.543 351.174 386.9 317.75 383.068 219.833 451.665 214.504 469.086 212.387 492.019 220.71 496.194 239.32 498.001 247.377 497.744 244.761 502.578 251.547 509.651 261.477 511.392 272.676 511.33 284.487 511.164 316.136 494.035 356.575 458.653 361.134zM450.822 229.804C439.721 231.236 421.201 240.323 418.925 252.394L442.468 252.44C444.394 252.432 448.362 251.901 450.078 252.474 460.105 251.099 473.736 249.457 481.41 242.013 476.11 231.684 463.924 229.267 453.339 229.673 452.72 229.696 451.374 229.589 450.822 229.804zM486.198 258.594C480.927 260.45 475.998 262.783 470.55 264.204 454.616 268.361 431.262 269.144 414.303 267.8 413.458 292.796 415.298 316.116 433.392 335.661 447.664 349.47 463.559 349.537 477.381 334.98 490.738 320.913 496.362 300.223 495.845 281.209 495.721 276.66 493.969 257.66 486.603 258.519L486.198 258.594z" transform="scale(.8)"></path>
  <path d="M327.413 508.885C297.344 508.917 272.326 507.555 242.487 500.203C228.553 496.769 213.001 492.922 211.052 476.241C202.979 477.253 194.879 477.18 186.756 477.196L153.625 476.016C141.676 474.963 129.884 473.389 118.125 470.964C95.4974 466.296 70.5444 461.447 71.5547 433.831C72.6895 402.81 88.7677 369.316 118.717 357.091C127.834 353.37 138.752 351.06 148.438 353.775C157.538 356.326 164.692 363.266 173.367 366.814C198.465 377.079 212.559 355.58 234.697 352.94C247.679 351.391 262.666 356.005 274.533 360.958C260.483 336.301 256.673 287.391 276.409 264.718C286.144 253.533 299.828 247.339 314.499 246.389C331.736 245.929 354.207 250.991 359.678 270.039C360.17 271.754 360.002 273.519 360.41 275.158C360.653 276.136 365.826 281.202 366.797 282.556C382.08 303.865 375.421 340.08 363.932 361.486C378.776 356.79 395.165 349.82 411.045 353.383C427.496 357.074 438.355 370.516 456.52 369.278C469.416 368.399 477.856 359.945 489.22 355.261C510.956 346.303 536.556 361.005 549.855 377.958C561.169 392.383 571.647 421.717 569.191 440.822L568.94 442.666C564.648 469.693 507.473 473.979 486.399 475.899L450.756 477.213C444.068 477.206 436.777 477.602 430.187 476.402L429.867 476.34C428.953 496.657 398.077 500.893 382.936 503.624C372.415 505.522 361.679 507.22 351.021 508.032L327.413 508.885ZM320.127 261.708C306.239 261.092 287.52 268.721 283.125 283.285C282.913 283.99 282.538 284.494 282.067 285.044L308.089 285.075C316.327 284.714 340.13 282.691 345.294 275.023L345.604 274.531C343.147 265.029 328.761 261.89 320.127 261.708ZM350.768 290.781C335.573 295.34 328.306 299.414 311.367 300.342L278.626 300.584C276.028 321.042 282.015 346.776 294.539 363.006L298.639 367.782C329.424 398.553 355.579 356.532 359.737 327.031C360.982 318.195 360.838 291.621 350.768 290.781ZM236.662 368.204C230.769 369.253 225.986 372.067 220.728 374.737C199.701 385.418 181.126 390.356 159.095 377.157C154.255 374.257 148.956 369.506 143.281 368.716L142.731 368.636C132.487 367.274 120.574 372.116 112.74 378.289C96.7414 390.895 89.5728 410.763 87.3183 430.402C86.9202 433.87 85.8954 440.469 88.1361 443.281C96.214 453.419 139.239 459.504 152.812 460.602C172.473 462.192 192.291 462.454 211.946 460.477C212.499 458.827 212.43 456.622 212.724 454.862C218.823 418.372 242.746 389.818 279.73 384.133C297.498 381.401 303.563 405.401 323.906 401.931L324.452 401.844C336.436 399.822 343.046 388.1 354.189 385.119C367.12 381.661 382.988 389.411 393.192 396.525L397.62 399.814C415.771 414.549 426.001 437.466 428.51 460.381L428.545 460.721C437.142 461.882 445.521 461.821 454.17 461.824L473.035 461.678C492.762 460.725 513.235 457.925 532.298 452.771C554.282 446.827 556.886 443.362 552.421 421.764C547.562 398.262 532.262 370.517 505.4 368.537C496.05 367.847 491.841 371.829 484.242 376.16C460.029 389.96 442.718 386.845 420.149 374.223C398.478 362.103 386.178 370.471 363.832 378.012C351.897 382.04 350.841 382.1 339.531 388.645C324.568 397.305 311.373 395.556 297.143 386.634C287.46 380.562 287.499 382.196 277.458 378.828C263.845 374.262 251.73 366.857 236.662 368.204ZM278.469 400.422C245.577 405.167 229.09 437.695 226.346 467.836C226.103 470.503 225.47 473.87 225.956 476.508C227.588 485.354 286.136 492.053 293.501 492.597L303.178 493.488L341.735 493.487L352.535 492.399C360.401 491.621 368.31 490.774 376.094 489.372C384.519 487.883 408.51 483.662 414.598 477.199C416.999 447.531 395.967 402.66 362.288 400.264C356.177 399.83 353.102 404.182 348.466 407.42C308.755 435.161 292.169 397.925 278.469 400.422Z" transform="scale(.8)"></path>
</svg>
