<svg xmlns="http://www.w3.org/2000/svg" viewBox="0 0 24 24" id="googleplaygames">
  <g fill="#000000" class="color000000 svgShape">
    <g fill="#000000" class="color000000 svgShape">
      <path fill="none" d="M0 0h24v24H0z"></path>
      <path fill="#784600" d="M1 12C1 4 4 1 12 1s11 3 11 11-3 11-11 11S1 20 1 12" class="color007824 svgShape"></path>
      <path fill="#b56900" d="m19.9 16.27-1.08-6.43c-6.76-.48-12.54-1-12.54 1.08a3.85 3.85 0 0 0 3.86 3.84h4.44l2.79 2.8a1.49 1.49 0 0 0 2.53-1.29Z" class="color00b538 svgShape"></path>
      <path fill="#db7f00" d="M15 6H9a3.85 3.85 0 0 0-3.82 3.84L4.1 16.27a1.49 1.49 0 0 0 2.53 1.29l3.86-3.88H15a3.84 3.84 0 0 0 3.8-3.84A3.84 3.84 0 0 0 15 6Z" class="color00db42 svgShape"></path>
      <circle cx="13.75" cy="9.84" r=".6" fill="#ffbf66" class="colorffffff svgShape"></circle>
      <circle cx="16.16" cy="9.84" r=".6" fill="#ffbf66" class="colorffffff svgShape"></circle>
      <circle cx="14.95" cy="8.64" r=".6" fill="#ffbf66" class="colorffffff svgShape"></circle>
      <circle cx="14.95" cy="11.04" r=".6" fill="#ffbf66" class="colorffffff svgShape"></circle>
      <path fill="#ffbf66" d="M10.73 9.36H9.64a.12.12 0 0 1-.12-.12V8.16A.12.12 0 0 0 9.4 8h-.72a.12.12 0 0 0-.12.12v1.12a.12.12 0 0 1-.12.12H7.35a.12.12 0 0 0-.12.12v.72a.12.12 0 0 0 .12.12h1.09a.12.12 0 0 1 .12.12v1.08a.12.12 0 0 0 .12.12h.72a.12.12 0 0 0 .12-.12v-1.08a.12.12 0 0 1 .12-.12h1.09a.12.12 0 0 0 .12-.12v-.72a.12.12 0 0 0-.12-.12Z" class="colorffffff svgShape"></path>
    </g>
  </g>
</svg>
