<svg xmlns="http://www.w3.org/2000/svg" fill-rule="evenodd" stroke-linejoin="round" stroke-miterlimit="2" clip-rule="evenodd" viewBox="0 0 32 32" id="LiveStreaming">
  <g transform="translate(-156 -208)" fill="#000000" class="color000000 svgShape">
    <path fill="#d58b24" d="M176.342 229.247a1.002 1.002 0 0 0 0 1.506l8 7A1 1 0 0 0 186 237v-14a1 1 0 0 0-1.658-.753l-8 7Z" class="colord5242e svgShape"></path>
    <path fill-opacity=".1" d="M176.342 229.247a1.002 1.002 0 0 0 0 1.506l8 7A1 1 0 0 0 186 237v-14a1 1 0 0 0-1.658-.753l-8 7Z" fill="#000000" class="color000000 svgShape"></path>
    <path fill="#d58b24" d="M178 222.999a3 3 0 0 0-3-3h-14a3 3 0 0 0-3 3v14a3 3 0 0 0 3 3h14a3 3 0 0 0 3-3v-14Z" class="colord5242e svgShape"></path>
    <circle cx="121" cy="7" r="1" fill="#ffbf66" transform="rotate(-180 139.5 108.5)" class="colorf0b638 svgShape"></circle>
    <path fill="#f2f2f2" d="M171.554 230.832a1 1 0 0 0 0-1.664l-6-4A1 1 0 0 0 164 226v8a1 1 0 0 0 1.554.832l6-4Z" class="colorf2f2f2 svgShape"></path>
    <path fill="#895c1d" d="M161 209v8a1 1 0 0 0 1 1h3a1 1 0 0 0 0-2h-2v-7a1 1 0 0 0-2 0ZM168 209v8a1 1 0 0 0 2 0v-8a1 1 0 0 0-2 0ZM182 209v8a1 1 0 0 0 2 0v-8a1 1 0 0 0-2 0Z" class="color89201d svgShape"></path>
    <path fill="#895c1d" d="M183 210h4a1 1 0 0 0 0-2h-4a1 1 0 0 0 0 2ZM183 218h4a1 1 0 0 0 0-2h-4a1 1 0 0 0 0 2ZM183 214h3.332a1 1 0 0 0 0-2H183a1 1 0 0 0 0 2ZM172.064 209.351l3 8a1 1 0 0 0 1.872 0l3-8a1 1 0 1 0-1.872-.702L176 214.152l-2.064-5.503a1 1 0 1 0-1.872.702Z" class="color89201d svgShape"></path>
  </g>
</svg>
