<svg xmlns="http://www.w3.org/2000/svg" viewBox="0 0 512 512" id="online-ads">
  <path d="M330 308.5h25v25h-25zM220 268.5h25v65h-25zM78.34 194.16l-5 14.27h9.77l-4.77-14.27zM151 201a22.52 22.52 0 0 0-22.5-22.5h-1.45v45h1.45A22.52 22.52 0 0 0 151 201Z"></path>
  <path d="M465 371V138.5H0V371a17.52 17.52 0 0 0 17.5 17.5h430A17.52 17.52 0 0 0 465 371ZM277.5 168.5h3a7.5 7.5 0 0 1 0 15h-3a7.5 7.5 0 0 1 0-15Zm-83 40a22.5 22.5 0 1 1 0-45h15a7.5 7.5 0 0 1 0 15h-15a7.5 7.5 0 1 0 0 15 22.5 22.5 0 0 1 0 45h-15a7.5 7.5 0 1 1 0-15h15a7.5 7.5 0 0 0 0-15ZM112.08 171a7.5 7.5 0 0 1 7.5-7.5h9a37.5 37.5 0 0 1 0 75h-9a7.5 7.5 0 0 1-7.5-7.5ZM57.5 238.5a7.5 7.5 0 0 1-7.08-10l21-60a7.49 7.49 0 0 1 7.07-5h.06a7.51 7.51 0 0 1 7.06 5.12l20.08 60a7.5 7.5 0 0 1-14.22 4.76l-3.34-9.95h-20l-3.52 10a7.5 7.5 0 0 1-7.11 5.07Zm335 110h-320a7.5 7.5 0 0 1 0-15H95V291a7.5 7.5 0 0 1 7.5-7.5h40a7.5 7.5 0 0 1 7.5 7.5v42.5h55V261a7.5 7.5 0 0 1 7.5-7.5h40a7.5 7.5 0 0 1 7.5 7.5v72.5h55V301a7.5 7.5 0 0 1 7.5-7.5h40a7.5 7.5 0 0 1 7.5 7.5v32.5h22.5a7.5 7.5 0 0 1 0 15Zm15-115h-130a7.5 7.5 0 0 1 0-15h130a7.5 7.5 0 0 1 0 15Zm0-50h-98.17a7.5 7.5 0 0 1 0-15h98.17a7.5 7.5 0 0 1 0 15Z"></path>
  <path d="M110 298.5h25v35h-25zM494.5 123.5H480V371a32.54 32.54 0 0 1-32.5 32.5H47V421a17.52 17.52 0 0 0 17.5 17.5h430A17.52 17.52 0 0 0 512 421V141a17.52 17.52 0 0 0-17.5-17.5zM465 91a17.52 17.52 0 0 0-17.5-17.5h-430A17.52 17.52 0 0 0 0 91v32.5h465zm-77.5 15h-10a7.5 7.5 0 0 1 0-15h10a7.5 7.5 0 0 1 0 15zm40 0h-10a7.5 7.5 0 0 1 0-15h10a7.5 7.5 0 0 1 0 15z"></path>
</svg>
